<?xml version="1.0" encoding="utf-8"?>
<!-- Generator: Adobe Illustrator 25.3.1, SVG Export Plug-In . SVG Version: 6.00 Build 0)  -->
<svg version="1.1" id="Capa_1" xmlns="http://www.w3.org/2000/svg" xmlns:xlink="http://www.w3.org/1999/xlink" x="0px" y="0px"
	 viewBox="0 0 279 279" style="enable-background:new 0 0 279 279;" xml:space="preserve">
<style type="text/css">
	.st0{fill:#FBBF3B;}
</style>
<path class="st0" d="M262.4,270.3l-16-197.4c-0.3-3.9-3.6-6.9-7.5-6.9h-42.8v-9.5c0-31.2-25-56.5-56.2-56.5h-1
	c-31.2,0-56.8,25.3-56.8,56.5V66H40c-3.9,0-7.2,3-7.5,6.9l-16,198c-0.2,2.1,0.5,4.1,2,5.7s3.4,2.4,5.5,2.4h231c0,0,0,0,0,0
	c4.1,0,7.5-3.4,7.5-7.5C262.5,271.1,262.5,270.7,262.4,270.3z M97.2,56.5c0-22.9,19-41.5,41.8-41.5h1c22.9,0,41.2,18.6,41.2,41.5V66
	h-84V56.5z"/>
</svg>
