<?xml version="1.0" encoding="utf-8"?>
<!-- Generator: Adobe Illustrator 25.3.1, SVG Export Plug-In . SVG Version: 6.00 Build 0)  -->
<svg version="1.1" id="Capa_1" xmlns="http://www.w3.org/2000/svg" xmlns:xlink="http://www.w3.org/1999/xlink" x="0px" y="0px"
	 viewBox="0 0 512 512" style="enable-background:new 0 0 512 512;" xml:space="preserve">
<style type="text/css">
	.st0{fill:#FFFFFF;}
</style>
<g>
	<g>
		<path class="st0" d="M103.9,136.3c22.3,3.1,42.8,12.4,59.1,26.7c27.8,24.4,63.6,38.7,100.7,40.2c2.3,0.1,4.6,0.1,6.8,0.1
			c35.3,0,70-11.6,98.3-32.9c11.5-8.7,21.7-18.7,30.4-29.9c10,9,19.1,18.9,27.1,29.6c2,2.6,5,4,8,4c2.1,0,4.2-0.6,6-2
			c4.4-3.3,5.3-9.6,2-14c-10.5-14.1-22.7-26.9-36.1-38.1c-5.5-16.2-13.5-31.5-23.9-45.5c-21.3-28.7-50.8-49.1-85.2-59
			c-33.3-9.6-69.4-8.4-101.8,3.5c-5.2,1.9-7.9,7.6-6,12.8c1.9,5.2,7.6,7.9,12.8,6c28.4-10.4,60.2-11.5,89.4-3
			c30.2,8.7,56,26.6,74.7,51.7c2.6,3.5,5.1,7.2,7.3,10.9c-2.8-1.6-5.7-3.2-8.6-4.7c-29.1-14.9-60.3-23.1-93-24.3l-22.7-20.1
			c-4.1-3.7-10.5-3.3-14.1,0.9c-3.7,4.1-3.3,10.5,0.9,14.1l6.6,5.8c-15.2,1.4-30.2,4.3-44.7,8.7c-5.3,1.6-8.3,7.2-6.6,12.5
			c1.6,5.3,7.2,8.3,12.5,6.6c19.2-5.8,39.2-8.8,59.4-8.8c17.6,0,34.7,2.2,51.3,6.5l-24,19.7c-4.3,3.5-4.9,9.8-1.4,14.1
			c2,2.4,4.8,3.7,7.7,3.7c2.2,0,4.5-0.7,6.3-2.3l34-27.8c6.4,2.5,12.6,5.3,18.8,8.5c9.7,5,19.1,10.8,27.9,17.4
			c-7.7,10-16.8,18.9-27,26.6c-26.4,19.9-59.2,30.2-92.2,28.8c-32.6-1.4-64-13.9-88.4-35.3c-16.3-14.3-36.1-24.3-57.6-29.3
			c4.4-11,10.1-21.3,17.1-30.8c3.3-4.5,2.3-10.7-2.2-14c-4.5-3.3-10.7-2.3-14,2.2C109,90.5,101,106.4,95.7,123.4
			c-0.9,2.8-0.5,5.9,1.1,8.3C98.4,134.3,100.9,135.9,103.9,136.3L103.9,136.3z"/>
		<path class="st0" d="M199.5,416.9c7.2-36.3,1.7-74.4-15.5-107.3c-17.4-33.4-46.2-59.9-80.9-74.7c-13.2-5.6-27-9.4-41.1-11.4
			c2.8-13.1,6.8-25.9,12.1-38.2c2.2-5.1-0.2-11-5.2-13.1c-5.1-2.2-11,0.2-13.1,5.2c-6.9,16.1-11.9,33.1-14.9,50.4
			c-11.3,12.9-20.5,27.5-27.4,43.4C-3.9,311.1-4.4,355.4,11.8,396c16.3,40.8,47.5,72.7,87.9,89.9c20.3,8.7,41.8,13,63.5,13
			c11.9,0,23.9-1.3,35.8-4c2.9-0.6,5.3-2.5,6.7-5.1c1.4-2.6,1.5-5.7,0.4-8.4C197.5,460.6,195.3,438.3,199.5,416.9z M107.5,467.5
			c-35.4-15.1-62.8-43.2-77.1-79c-14.2-35.6-13.7-74.4,1.4-109.4c1.7-4,3.7-8,5.8-11.8c0,3.3,0.1,6.5,0.2,9.8
			c1.6,32.7,10.2,63.8,25.5,92.7l-6,29.7c-1.1,5.4,2.4,10.7,7.8,11.8c0.7,0.1,1.3,0.2,2,0.2c4.7,0,8.8-3.3,9.8-8l1.7-8.6
			c8.8,12.5,18.8,24,29.9,34.3c1.9,1.8,4.4,2.7,6.8,2.7c2.7,0,5.3-1.1,7.3-3.2c3.8-4,3.6-10.4-0.5-14.1
			c-14.7-13.7-27.2-29.5-37.3-47.1c-8.8-15.2-15.5-31.2-20-47.7l29.1,11c1.2,0.4,2.4,0.6,3.5,0.6c4,0,7.8-2.5,9.4-6.5
			c1.9-5.2-0.7-10.9-5.8-12.9l-41.1-15.5c-1-6.8-1.7-13.6-2.1-20.5c-0.5-10.9-0.2-21.9,1.1-32.9c12.5,1.7,24.8,5.1,36.5,10.1
			c30.5,12.9,55.7,36.2,71,65.5c15.1,28.9,19.9,62.4,13.6,94.2c-4.2,21.3-3,43.4,3.4,64.5C157.5,481.2,131.5,477.8,107.5,467.5
			L107.5,467.5z"/>
		<path class="st0" d="M510.8,310.4c-4.1-33.9-18.5-65.2-41.8-90.5c-2-2.2-4.8-3.3-7.8-3.2c-2.9,0.1-5.7,1.5-7.5,3.8
			c-13.9,17.8-32.1,30.8-52.7,37.9c-35,11.9-65.3,35.7-85.2,67.1c-20.2,31.8-28.8,70-24.2,107.4c1.8,14.3,5.3,28.1,10.7,41.3
			c-12.7,4.1-25.9,7-39.2,8.6c-5.5,0.6-9.4,5.6-8.8,11.1c0.6,5.1,4.9,8.8,9.9,8.8c0.4,0,0.8,0,1.2-0.1c17.4-2.1,34.6-6.2,51.1-12.3
			c10.5,2.1,21.2,3.2,31.9,3.2c6.4,0,12.9-0.4,19.4-1.1c43.2-5,81.8-26.7,108.9-61C504,396.9,516.1,353.9,510.8,310.4L510.8,310.4z
			 M461.1,419c-23.7,30.1-57.6,49.1-95.5,53.5c-4.4,0.5-8.7,0.8-13.1,0.9c2.8-1.7,5.6-3.3,8.4-5.1c27.5-17.7,50.2-40.7,67.6-68.4
			l28.7-9.7c5.2-1.8,8-7.4,6.3-12.7c-1.8-5.2-7.4-8.1-12.7-6.3l-8.3,2.8c6.4-13.8,11.3-28.3,14.8-43.1c1.2-5.4-2.1-10.8-7.5-12
			c-5.4-1.2-10.8,2.1-12,7.5c-4.5,19.5-12,38.3-22.1,55.9c-8.8,15.2-19.3,29-31.3,41.2l-5.1-30.7c-0.9-5.4-6-9.1-11.5-8.2
			c-5.4,0.9-9.1,6-8.2,11.5l7.1,43.3c-5.3,4.3-10.9,8.3-16.7,12.1c-9.2,5.9-18.9,11.1-29,15.5c-4.8-11.7-8-24-9.5-36.6
			c-4.1-32.9,3.5-66.4,21.2-94.3c17.5-27.5,44-48.5,74.7-58.9c20.6-7,39.1-19.1,54.1-35.2c16.1,20.5,26.2,44.7,29.3,70.7
			C495.6,351,485,388.8,461.1,419L461.1,419z"/>
		<circle class="st0" cx="159.2" cy="50" r="10"/>
	</g>
</g>
</svg>
