<?xml version="1.0" encoding="utf-8"?>
<!-- Generator: Adobe Illustrator 25.3.1, SVG Export Plug-In . SVG Version: 6.00 Build 0)  -->
<svg version="1.1" id="Capa_1" xmlns="http://www.w3.org/2000/svg" xmlns:xlink="http://www.w3.org/1999/xlink" x="0px" y="0px"
	 viewBox="0 0 442.1 355.9" style="enable-background:new 0 0 442.1 355.9;" xml:space="preserve">
<style type="text/css">
	.st0{fill:#FFFFFF;}
</style>
<g>
	<g>
		<path class="st0" d="M437.3,234L80.5,8.5c-4.8-2.9-11-1.4-13.9,3.3c-65.4,103-34.9,239.4,68.1,304.7c0.2,0.1,0.4,0.3,0.6,0.4
			c103,65.1,240,34.1,305.1-68.9C443.3,243.3,442,237,437.3,234z M380.5,221.7c-19.7,28-48.2,48.6-81,58.6l-30.2-128.9L380.5,221.7z
			 M249.3,155.2l30.5,130.3c-35,6.2-71.1,0.3-102.3-16.7L249.3,155.2L249.3,155.2z M227.2,124.8l-129.2,28
			c-5.1-33.9,1.2-68.5,18-98.3L227.2,124.8z M232.4,144.5L160.6,258c-28.8-20.8-49.6-50.9-58.8-85.2L232.4,144.5z M146,299.8
			c-90.7-57.2-120.5-175.7-67.6-269l20.6,13c-48.1,84.9-18.2,192.7,66.7,240.8c79.2,44.8,179.4,22.2,231.7-52.2l20.6,13
			C356.4,333.2,236.7,357.2,146,299.8z"/>
	</g>
</g>
</svg>
