<?xml version="1.0" encoding="utf-8"?>
<!-- Generator: Adobe Illustrator 25.3.1, SVG Export Plug-In . SVG Version: 6.00 Build 0)  -->
<svg version="1.1" id="Layer_2" xmlns="http://www.w3.org/2000/svg" xmlns:xlink="http://www.w3.org/1999/xlink" x="0px" y="0px"
	 viewBox="0 0 1084 568" style="enable-background:new 0 0 1084 568;" xml:space="preserve">
<style type="text/css">
	.st0{fill:none;}
	.st1{fill:#FBBF3B;}
	.st2{fill:#E2760A;}
	.st3{fill:#FFFFFF;}
</style>
<g>
	<path d="M217.2,410.3c0,55.9-31.8,85.6-88.7,85.6c-40.7,0-56.7-16.8-56.7-16.8c-5.5-5.8-7.6-16.5-4.8-24l10.4-27.2
		c2.8-7.4,9.9-9,15.6-3.5c0,0,9.9,9.4,26.5,9.4c18.6,0,32.8-11.4,32.8-40V220.4c0-7.9,6.5-14.4,14.4-14.4h36
		c7.9,0,14.4,6.5,14.4,14.4V410.3z"/>
	<path d="M566.4,476.3c0,7.9-6.5,14.4-14.4,14.4h-36c-7.9,0-14.4-6.5-14.4-14.4V220.4c0-7.9,6.5-14.4,14.4-14.4h36
		c7.9,0,14.4,6.5,14.4,14.4V476.3z"/>
	<path d="M795.6,423.3c6.3-4.9,14.3-3,17.9,4.1l14.7,29.4c3.6,7.1,1.4,17.1-4.7,22.1c0,0-20.6,17-82.4,17
		c-80.4,0-154.3-65.6-154.3-147c0-81.8,73.5-148.1,154.3-148.1c61.8,0,82.4,17,82.4,17c6.1,5.1,8.2,15,4.7,22.1l-14.7,29.4
		c-3.6,7.1-11.6,8.9-17.9,4.1c0,0-11.4-8.8-44.5-8.8c-65.2,0-93.9,45.6-93.9,83.5c0,38.3,28.6,83.9,93.9,83.9
		C784.3,432,795.6,423.3,795.6,423.3z"/>
	<path d="M1025.4,248.5c0,7.9-6.5,14.4-14.4,14.4h-69.1c-7.9,0-14.4,6.5-14.4,14.4v27.7c0,7.9,6.5,14.4,14.4,14.4h65
		c7.9,0,14.4,6.5,14.4,14.4V362c0,7.9-6.5,14.4-14.4,14.4h-65c-7.9,0-14.4,6.5-14.4,14.4v28.4c0,7.9,6.5,14.4,14.4,14.4h69.1
		c7.9,0,14.4,6.5,14.4,14.4v28.1c0,7.9-6.5,14.4-14.4,14.4h-134c-7.9,0-14.4-6.5-14.4-14.4V220.4c0-7.9,6.5-14.4,14.4-14.4h134
		c7.9,0,14.4,6.5,14.4,14.4V248.5z"/>
	<g>
		<g>
			<line class="st0" x1="294.9" y1="472.3" x2="428.5" y2="472.3"/>
		</g>
		<path d="M465,207.1c-15.2-2.5-15.5,14.6-15.5,14.6l-21,250.6H294.9l-23.5-255.4c0,0-1.9-12-13.5-11c-2.5,0.2-4.5,2.3-6.2,4.2
			c-3,3.3-4.5,7.8-4.1,12.4l24.3,258c0.8,8.6,8.3,15.4,16.9,15.4h145.6c8.8,0,16.2-6.8,16.9-15.6l21.1-257.9
			C474.2,210.5,466.4,207.3,465,207.1z"/>
		<g>
			<path class="st1" d="M443.3,295.7l0,1.3C443.3,296.2,443.3,295.7,443.3,295.7z"/>
		</g>
		<g>
			<g>
				<path class="st1" d="M429.8,71.5C416.5,74.8,405,99.3,405,99.3C448.8,84.8,443.1,68.2,429.8,71.5z"/>
				<path class="st1" d="M315.1,80.2c-6.4,12.1,3.9,37.1,3.9,37.1C337.7,75.1,321.6,68.2,315.1,80.2z"/>
				<path class="st1" d="M262,129.4c0.2,13.7,21.5,30.5,21.5,30.5C279.3,114,261.8,115.8,262,129.4z"/>
			</g>
			<path class="st1" d="M363.5,183.9c16.3-15,33.4-27.5,53-38.1c11.2-6,18-10.7,22.7-14.1c16.8-12.1,4.8-22.5-9.4-15.8
				c-9.3,4.4-15.2,9.2-19.7,13.6c-8.1,8.1-14.7,16.1-25.6,20.7c-15.2,6.4-21.3-0.5-24-4.8c-7.3-11.6-1.9-27,0.7-31.8
				c3.7-7.1,8.7-15.3,10.6-28.2c0.4-2.4,2.5-25.5-14.7-18c-10.3,4.5-15.1,24.5-16.2,41.1c-1.1,16.5,2.9,51.2-16.8,51.1
				c-13.2,0-22-26.1-23-31.9c-0.5-3.1-3.4-7.8-7.1-6.7c-3.6,1.1-4.2,4.6-2.5,9.4c4.8,14,10.5,28.5,9.8,43.6
				c-0.7,17.7-17.5,26.5-26.3,7.6c-2.8-5.9-4.3-11.7-5-14.5c-2.9-11.3-6.6-29.3-21.7-26.7c-10.6,1.9-18.3,20.7,10.5,46.7
				c0.3,0.3,0.7,0.5,1,0.9c3.7,4.6,6.4,7.8,9,17.1c4.2,15.5,4.7,46.7,13.9,132.9l12.3,134.1h133.6l14.4-172.1
				c-1.5,9.1-8.4,28.7-41.3,29.1c-20.9,0.3-37.2-11.3-48.5-23.3c-20.5-21.7-25.5-50.3-17.3-78.4C340,213,348.4,197.8,363.5,183.9z"
				/>
		</g>
		<path class="st2" d="M303.5,263.8c0,0-6.3-20.5-29.3-16.5c0,21.9,4.9,52.9,8.4,91l12.3,134.1h133.6l0.7-8.5H320.4L303.5,263.8z"/>
		<g>
			<path class="st3" d="M326.5,451l-9.2-121.3c-0.5-6.4-6.1-11.2-12.4-10.7c-6.4,0.5-11.2,6-10.7,12.4l9.2,121.3
				c0.4,5.8,5.1,10.3,10.7,10.7c0.6,0,1.1,0,1.7,0C322.2,462.9,327,457.4,326.5,451z"/>
			<path class="st3" d="M302,302.8c0.6,0,1.1,0,1.7,0c6.4-0.5,11.2-6,10.7-12.4l-1.1-14.2c-0.5-6.4-6.1-11.2-12.4-10.7
				c-6.4,0.5-11.2,6-10.7,12.4l1.1,14.2C291.7,297.9,296.3,302.4,302,302.8z"/>
		</g>
	</g>
</g>
</svg>
