<?xml version="1.0" encoding="utf-8"?>
<!-- Generator: Adobe Illustrator 25.3.1, SVG Export Plug-In . SVG Version: 6.00 Build 0)  -->
<svg version="1.1" id="Capa_1" xmlns="http://www.w3.org/2000/svg" xmlns:xlink="http://www.w3.org/1999/xlink" x="0px" y="0px"
	 viewBox="0 0 196 209" style="enable-background:new 0 0 196 209;" xml:space="preserve">
<style type="text/css">
	.st0{fill:#FFFFFF;}
</style>
<path class="st0" d="M190.9,200.2L178.1,58.6c-0.3-3.9-3.6-6.8-7.5-6.8h-26.2V40c0-22-17.9-40-40-40c-22,0-40,17.9-40,40v11.8H38.3
	c-3.9,0-7.1,3-7.5,6.8L18,200.8c-0.2,2.1,0.5,4.2,1.9,5.7s3.4,2.4,5.5,2.4h157.9c0,0,0,0,0,0c4.1,0,7.5-3.4,7.5-7.5
	C190.9,201,190.9,200.6,190.9,200.2z M79.5,40c0-13.8,11.2-25,25-25c13.8,0,25,11.2,25,25v11.8H79.5V40z M33.7,194L45.1,66.8h19.4
	v13.4c0,4.1,3.4,7.5,7.5,7.5s7.5-3.4,7.5-7.5V66.8h49.9v13.4c0,4.1,3.4,7.5,7.5,7.5s7.5-3.4,7.5-7.5V66.8h19.4L175.2,194L33.7,194
	L33.7,194z"/>
</svg>
